HIERARCHY
ROOT Hips
{
  OFFSET 233.108 94.2698 -254.549
  CHANNELS 6 Xposition Yposition Zposition Zrotation Xrotation Yrotation
  JOINT ToSpine
  {
    OFFSET -2.69724 7.43032 -0.144315
    CHANNELS 3 Zrotation Xrotation Yrotation
    JOINT Spine
    {
      OFFSET -0.0310711 10.7595 1.96963
      CHANNELS 3 Zrotation Xrotation Yrotation
      JOINT Spine1
      {
        OFFSET 19.9056 3.91189 0.764692
        CHANNELS 3 Zrotation Xrotation Yrotation
        JOINT Neck
        {
          OFFSET 25.9749 7.03908 -0.130764
          CHANNELS 3 Zrotation Xrotation Yrotation
          JOINT Head
          {
            OFFSET 9.52751 0.295786 -0.907742
            CHANNELS 3 Zrotation Xrotation Yrotation
            End Site
            {
              OFFSET 16.4037 0.713936 2.7358
            }
          }
        }
        JOINT LeftShoulder
        {
          OFFSET 17.7449 4.33886 11.7777
          CHANNELS 3 Zrotation Xrotation Yrotation
          JOINT LeftArm
          {
            OFFSET 0.911315 1.27913 9.80584
            CHANNELS 3 Zrotation Xrotation Yrotation
            JOINT LeftForeArm
            {
              OFFSET 28.6126 1.18197 -3.53199
              CHANNELS 3 Zrotation Xrotation Yrotation
              JOINT LeftHand
              {
                OFFSET 27.5088 0.0218783 0.327423
                CHANNELS 3 Zrotation Xrotation Yrotation
                End Site
                {
                  OFFSET 18.6038 -0.000155887 0.382096
                }
              }
            }
          }
        }
        JOINT RightShoulder
        {
          OFFSET 17.1009 2.89543 -12.2328
          CHANNELS 3 Zrotation Xrotation Yrotation
          JOINT RightArm
          {
            OFFSET 1.4228 0.178766 -10.211
            CHANNELS 3 Zrotation Xrotation Yrotation
            JOINT RightForeArm
            {
              OFFSET 28.733 1.87905 2.64907
              CHANNELS 3 Zrotation Xrotation Yrotation
              JOINT RightHand
              {
                OFFSET 27.4588 0.290562 -0.101845
                CHANNELS 3 Zrotation Xrotation Yrotation
                End Site
                {
                  OFFSET 17.8396 -0.255518 -0.000602873
                }
              }
            }
          }
        }
      }
    }
  }
  JOINT LeftUpLeg
  {
    OFFSET -5.61296 -2.22332 -10.2353
    CHANNELS 3 Zrotation Xrotation Yrotation
    JOINT LeftLeg
    {
      OFFSET 2.56703 -44.7417 -7.93097
      CHANNELS 3 Zrotation Xrotation Yrotation
      JOINT LeftFoot
      {
        OFFSET 3.16933 -46.5642 -3.96578
        CHANNELS 3 Zrotation Xrotation Yrotation
        JOINT LeftToeBase
        {
          OFFSET 0.346054 -6.02161 12.8035
          CHANNELS 3 Zrotation Xrotation Yrotation
          End Site
          {
            OFFSET 0.134235 -1.35082 5.13018
          }
        }
      }
    }
  }
  JOINT RightUpLeg
  {
    OFFSET -5.7928 -1.72406 10.6446
    CHANNELS 3 Zrotation Xrotation Yrotation
    JOINT RightLeg
    {
      OFFSET -2.57161 -44.7178 -7.85259
      CHANNELS 3 Zrotation Xrotation Yrotation
      JOINT RightFoot
      {
        OFFSET -3.10148 -46.5936 -4.03391
        CHANNELS 3 Zrotation Xrotation Yrotation
        JOINT RightToeBase
        {
          OFFSET -0.0828122 -6.13587 12.8035
          CHANNELS 3 Zrotation Xrotation Yrotation
          End Site
          {
            OFFSET -0.131328 -1.35082 5.13018
          }
        }
      }
    }
  }
}
MOTION
Frames:	19
Frame Time:	0.0333333
-25.2161 93.5879 30.0866 67.4752 47.674 20.3823 -70.1915 0 88.8779 140.755 63.3979 -51.143 9.32577 22.3075 -1.72108 -160.008 8.50872 178.757 -140.726 41.4466 161.481 2.32559 -3.44597 -30.9838 -89.9771 42.951 -89.0465 -2.73131 22.3632 -9.69202 11.6076 -0.714915 -5.1981 0.177339 0.00809696 25.6111 -77.0848 -50.1159 95.7102 8.97759 -4.80129 54.333 7.385 0.37863 6.03658 -17.5662 -5.61477 84.5919 -32.09 82.6932 20.1647 2.3893 6.85882 -0.0525774 -5.92584 -18.215 18.4175 -43.9076 5.3351 79.2003 7.90798 68.1914 1.86524 -6.64818 -10.8562 1.12523 9.92554 -18.3811 -15.9174 
-33.8307 91.6818 38.5382 66.6458 48.6295 22.1476 -70.1915 0 88.8779 139.812 63.0626 -48.6288 10.0487 21.6817 -1.4187 -159.106 6.2461 179.762 -139.926 38.3244 160.334 2.38643 -3.23208 -31.3082 -85.1695 40.6012 -99.5152 -0.852627 16.987 -12.7023 13.0626 -0.641005 -3.81406 0.0869589 0.646088 26.4896 -78.4376 -51.0794 92.5759 12.5824 -9.59181 46.4667 7.99433 0.217645 3.01134 -18.9639 -3.68735 83.1264 -153.988 79.7338 146.309 3.21633 5.84729 -0.244857 -5.89659 -19.2248 16.4622 -34.2815 3.37453 77.2463 10.3434 71.279 1.94648 -7.00028 -8.28297 1.10716 10.6572 -20.145 -17.6003 
-41.1054 92.1608 47.4583 63.8297 49.6213 26.9501 -70.1915 0 88.8779 136.937 63.2311 -44.7454 11.089 20.5728 -0.361791 -159.014 2.96971 -179.044 -141.509 34.6299 158.95 2.36432 -3.07757 -30.5077 -77.1216 37.8876 -110.689 2.65808 7.29541 -18.4313 16.1073 -0.850541 -4.227 0.0403793 0.854568 27.965 -77.1589 -52.0349 90.2228 16.5375 -15.5171 42.4075 8.93387 0.107657 1.11531 -23.6029 0.218203 79.1976 -162.637 73.862 156.386 6.10392 7.24922 -0.710575 -6.20571 -22.3897 15.1177 -27.4923 5.39572 75.6404 6.77682 65.8869 1.63372 -6.10697 -6.20229 1.02427 10.2154 -14.3904 -20.9722 
-49.3141 94.4039 56.5182 61.8968 51.031 27.2507 -70.1915 0 88.8779 136.105 61.9406 -47.0037 9.80389 19.6786 0.340521 -158.576 -0.485775 -177.268 -141.303 30.1159 157.268 2.34577 -3.24252 -30.6955 -80.0584 35.1207 -113.725 6.34662 7.84895 -28.0264 15.6244 -0.796125 -4.02188 0.116598 0.34074 27.94 -71.4261 -54.6652 91.662 12.051 -11.562 39.1002 7.65176 0.0765084 0.878134 -30.1063 -0.252908 78.7063 -158.945 76.8579 151.24 6.29828 7.88904 -0.734986 -6.33282 -23.5635 14.1324 -22.637 2.88325 77.6085 4.22501 58.7458 1.40233 -6.76856 -4.63041 1.04948 4.71634 8.47794 -16.9655 
-58.3122 98.2429 64.8855 58.7993 50.3249 28.0933 -70.1915 0 88.8779 136.636 60.4247 -48.6049 7.71887 19.2519 -1.28469 -160.727 -4.10322 -175.026 -142.389 26.2376 156.278 2.2673 -3.39306 -29.8759 -84.4648 33.3898 -113.67 11.0543 10.0193 -42.0314 16.3142 -1.22821 -6.72405 0.016425 1.11195 27.0119 -66.7942 -57.979 93.6021 7.97336 -6.77179 37.6843 5.47548 0.107621 2.16942 -34.8482 -1.83585 79.7592 -110.307 85.5822 101.26 5.157 7.67177 -0.526568 -6.43456 -24.556 11.2616 -22.6768 0.346692 79.1987 2.19728 41.8947 4.76575 -4.8438 -1.16659 0.791082 -13.6411 36.6754 3.75364 
-66.7646 100.82 72.4406 56.5772 47.4326 27.0525 -70.1915 0 88.8779 136.633 61.3881 -50.3071 6.73585 20.7042 -2.91398 -161.812 -7.10436 -172.01 -143.03 23.4035 156.872 2.18128 -3.64888 -29.1942 -85.6492 31.8854 -114.714 16.2692 10.3688 -54.5372 17.8903 -2.04911 -11.0636 -0.141521 2.41638 26.1025 -65.4596 -59.6434 94.2349 7.39297 -6.08667 37.3391 5.12627 0.132913 3.00907 -38.2706 -3.35351 82.6466 -18.5462 78.5204 6.69242 3.88693 6.80911 -0.322896 -6.17385 -22.8841 11.7671 -20.5328 -2.52198 78.0781 2.37549 36.4502 7.58811 -3.05759 3.41408 0.388571 -7.13107 24.2973 -0.738761 
-74.3179 100.633 79.4988 57.0465 44.886 23.6482 -70.1915 0 88.8779 135.481 62.9772 -51.5555 6.40497 22.7789 -5.08168 -160.8 -9.81364 -169.225 -143.233 20.2461 156.495 2.27764 -3.31793 -29.8264 -85.4854 31.9773 -113.627 20.9385 9.77532 -63.6062 22.1763 -2.00536 -8.37896 -0.183998 3.02055 24.9367 -60.853 -58.9885 100.683 6.28021 -4.85978 35.8025 6.24932 0.128084 2.23742 -40.7165 -6.15338 84.7968 -10.4522 70.4876 -5.42591 3.68261 3.64991 -0.411415 -5.42948 -18.5396 10.8025 -18.0227 -3.78468 80.5351 2.53187 48.4215 3.1647 -3.75463 3.03573 0.50842 -0.0949353 14.6455 -9.24613 
-82.0333 97.975 86.6236 60.7481 43.1155 19.3839 -70.1915 0 88.8779 136.493 63.7481 -53.783 6.28867 24.2896 -6.28406 -157.978 -11.9354 -166.697 -143.709 17.3122 155.405 2.36288 -2.95864 -30.1514 -83.9152 34.8951 -110.913 17.3561 9.24118 -59.6357 22.9389 -1.80469 -7.07222 -0.127577 3.11003 22.8584 -57.1706 -57.6596 107.276 3.99 -1.78806 33.7751 7.41012 0.185691 2.76364 -42.0532 -8.00794 86.6793 -9.02201 67.1599 -9.13045 4.16015 3.20925 -0.499566 -5.7894 -21.3407 8.49851 -17.3047 -4.24855 84.046 8.30762 71.9722 -4.48724 -5.15088 -0.513016 0.808165 4.00487 5.9003 -14.0465 
-89.7851 95.3855 93.836 64.8002 41.6452 16.0952 -70.1915 0 88.8779 139.54 64.2321 -57.0281 6.26512 25.4458 -6.90188 -155.174 -13.6674 -166.236 -144.052 14.685 154.179 2.52623 -2.43276 -31.1225 -82.6651 37.801 -107.109 14.6191 11.616 -47.6752 20 -1.58135 -7.13326 -0.0925503 3.34805 21.1267 -62.2524 -58.2688 104.484 3.38555 -0.876436 35.4619 7.54494 0.129978 1.78156 -40.4879 -8.01789 87.9574 -8.61466 66.6411 -7.64044 6.95097 1.40375 -0.93342 -8.10232 -32.7573 7.64059 -21.594 -4.17174 86.9906 121.223 85.5647 -115.942 -6.01734 -2.87016 0.954549 4.20196 1.58563 -12.1441 
-98.2288 92.9757 101.454 63.3366 41.5884 16.9168 -70.1915 0 88.8779 137.491 66.8374 -54.1252 7.90597 25.7218 -6.82171 -153.818 -14.1013 -164.744 -143.479 13.8381 154.621 2.84593 -1.84887 -33.8736 -79.5123 38.741 -106.182 10.2295 13.1106 -31.7017 17.1792 -1.33581 -6.99722 -0.0829805 3.91305 19.6225 -70.9452 -59.1961 97.5704 4.27334 -1.91723 39.4868 8.07414 0.147098 1.89195 -31.0757 -10.4112 86.5371 -8.91495 68.4121 -3.91854 8.99829 7.39223 -1.23882 -10.1252 -41.9444 8.013 -25.984 -4.6635 89.5214 162.11 74.2153 -153.748 -7.17837 -4.45196 1.08137 5.56698 -1.65355 -13.881 
-105.974 93.0938 107.989 64.6023 41.5923 16.0868 -70.1915 0 88.8779 140.185 67.6584 -54.4814 9.8445 26.8346 -8.80127 -152.698 -13.1608 -163.904 -143.583 14.5927 154.32 2.98443 -1.96826 -36.0428 -72.6879 37.9102 -105.923 4.51548 11.8267 -19.1351 18.0318 -0.792348 -3.23588 -0.046234 3.72761 19.0106 -70.8984 -58.2167 98.7223 5.01325 -2.69432 41.0576 8.52091 0.254874 3.32494 -28.1689 -12.4611 84.267 -5.84917 63.2308 -1.81188 9.98692 10.4558 -1.46348 -10.1883 -41.6208 7.2013 -37.0655 -3.66877 90.6371 160.193 74.5459 -145.718 -6.75858 -3.82571 1.0385 6.89932 -7.60599 -13.8472 
-113.672 95.0641 115.637 64.1678 41.2852 16.0727 -70.1915 0 88.8779 141.134 67.6835 -55.0412 9.48631 27.5295 -9.98725 -152.973 -12.5469 -163.135 -144.358 15.6709 154.625 3.28615 -1.15576 -37.3798 -88.7393 37.8747 -90.9086 -1.869 22.6271 -10.7926 16.1563 -0.786168 -3.7658 -0.0104487 3.1549 19.1236 -63.8466 -55.9585 107.579 4.41285 -2.06008 39.9989 7.60383 0.274292 4.12834 -25.5784 -12.4065 82.5997 -3.81461 54.3801 -3.9675 7.98242 10.5362 -1.04339 -6.97933 -27.7583 10.8946 -45.2601 -0.442113 91.0136 134.734 83.2984 -117.621 -6.68045 -3.6259 1.02891 8.03985 -12.855 -13.4714 
-121.462 97.7533 125.01 59.6492 43.1693 19.6183 -70.1915 0 88.8779 140.168 67.5009 -54.6358 7.8663 27.4597 -9.46431 -154.178 -11.5004 -163.325 -144.417 16.9959 154.282 3.11624 -1.34301 -35.8669 -95.6907 38.7127 -82.9174 -4.30082 24.3103 -6.61285 13.5655 -0.588793 -3.18447 0.00417595 2.67253 19.7981 -61.7814 -54.9038 109.204 4.97327 -2.60059 41.7683 6.81669 0.29665 5.11226 -23.4052 -11.1297 81.0755 -2.7059 39.5671 -10.984 2.75828 9.40073 0.00154842 -3.74559 -0.0940568 15.7621 -48.0156 3.37862 89.3643 24.8833 80.7392 -9.69595 -6.78946 -5.49122 1.06186 7.32772 -8.41616 -14.6648 
-128.63 98.9465 133.452 54.9062 46.209 24.8849 -70.1915 0 88.8779 138.689 67.68 -52.1049 8.25991 26.7783 -8.84438 -155.103 -10.3392 -164.389 -144.75 18.725 154.601 2.9104 -1.9957 -35.1481 -95.2409 39.3255 -81.4798 -3.64013 23.0259 -7.74706 13.0623 -0.541492 -2.96819 0.0792976 1.67404 19.8258 -58.9801 -53.5563 110.549 4.63448 -2.12871 43.6202 6.7956 0.362736 6.35371 -19.71 -10.5266 82.6678 -2.60495 36.7961 -13.0483 -1.82327 9.36617 0.921388 -5.0045 -3.44969 20.2484 -49.6145 6.63329 85.8655 8.08661 69.1588 1.56706 -6.14683 -8.57514 1.06999 4.03914 1.56832 -11.7048 
-135.701 97.4527 141.175 52.306 49.4701 29.67 -70.1915 0 88.8779 138.25 67.3496 -49.2823 8.39442 25.5745 -7.53223 -154.537 -8.83355 -166.36 -143.392 19.6871 153.937 2.83059 -2.32582 -35.0754 -92.5428 38.9561 -83.5774 -2.68961 22.1028 -9.44654 13.5108 -0.647355 -3.68553 0.100171 1.35052 20.0483 -59.7362 -54.016 108.128 6.25898 -3.71942 44.5952 5.87867 0.304439 6.2586 -15.2261 -10.6693 82.7741 -4.23448 51.6557 -12.0754 -0.804629 8.3838 0.639773 -5.45462 -10.9663 19.704 -49.5756 10.0537 82.0656 5.5339 62.1625 4.67891 -5.75663 -5.78068 0.991394 3.74777 4.95654 -12.9184 
-143.163 94.6087 148.135 54.8916 53.7422 29.4102 -70.1915 0 88.8779 141.38 65.431 -50.63 8.74155 24.5096 -5.88137 -154.091 -6.84299 -168.54 -142.982 21.5735 153.174 2.81835 -2.07151 -34.1436 -89.4767 38.7899 -88.7986 -2.48102 22.0227 -10.0898 13.1524 -0.737344 -4.5898 0.108485 1.22632 20.136 -61.6253 -55.8638 104.598 6.12996 -3.83819 42.2203 6.3812 0.288719 5.36904 -15.6979 -11.5261 81.7426 -11.8501 72.5668 -3.87043 1.14156 6.50268 0.149548 -6.11158 -19.9696 18.8573 -50.6328 10.2787 79.2744 5.30831 60.0502 6.5895 -7.39455 -5.76171 1.1087 4.51887 -5.65848 -7.84654 
-151.128 91.8881 155.661 58.5482 55.1456 26.6692 -70.1915 0 88.8779 144.594 64.2909 -53.0224 8.41964 24.927 -4.24394 -153.291 -3.80336 -169.386 -141.458 24.779 154.435 2.62616 -2.96212 -34.1575 -81.9119 38.2136 -95.0966 0.636363 16.2496 -14.5902 12.4014 -0.73788 -4.96946 0.0972065 1.18674 21.0781 -63.6385 -57.0818 101.059 6.08891 -4.42355 37.0274 6.38296 0.222848 4.05987 -18.442 -8.89313 82.1445 -99.2578 85.7112 87.6242 3.20308 4.20113 -0.314506 -6.36601 -22.786 18.9464 -45.8761 8.36359 78.201 7.97932 65.8839 7.64146 -7.8215 -17.3641 1.17988 6.37254 0.14658 -17.1862 
-158.951 90.2647 164.621 53.8651 53.2572 34.4279 -70.1915 0 88.8779 141.555 66.1421 -46.1335 9.80327 24.3714 -3.09172 -154.905 -0.886941 -170.061 -140.166 28.3738 155.864 2.87147 -1.99536 -34.6305 -73.5228 34.5791 -104.999 2.68992 8.02404 -18.4955 13.4537 -0.651617 -3.7433 0.0561467 1.41403 22.3081 -62.9396 -57.3393 103.203 5.50126 -4.77273 28.777 6.94226 0.191654 3.1034 -17.6218 -3.64555 77.3134 -159.675 76.3371 151.757 4.86856 5.72078 -0.530302 -6.48597 -24.1802 18.5829 -32.7994 12.3861 77.7867 8.86983 67.7056 6.56173 -7.09739 -10.6817 1.13564 10.7496 -14.4921 -23.1667 
-165.955 91.1901 173.407 52.7124 56.1717 37.0794 -70.1915 0 88.8779 138.518 64.5209 -44.3078 11.4718 22.0755 -1.41753 -155.333 2.47648 -172.163 -139.66 32.7728 157.724 2.56836 -2.85812 -32.9603 -76.1718 34.9417 -106.81 5.0246 6.49689 -23.5764 15.776 -0.764843 -3.74661 0.030262 1.51282 23.199 -62.6727 -57.9773 105.378 3.7641 -5.67664 21.2421 6.89236 0.198989 3.26488 -24.9918 -1.57117 73.9657 -161.696 74.7121 154.728 6.60291 8.68654 -0.780508 -6.37508 -23.5336 16.2633 -27.8372 11.6225 77.321 6.2671 63.8715 3.17447 -6.63927 -8.17501 1.0877 9.81492 -10.2793 -22.187 
